<svg width="541" height="844" viewBox="0 0 541 844" fill="none" xmlns="http://www.w3.org/2000/svg">
<g filter="url(#filter0_d_0_1)">
<path d="M199.798 548.852L199.818 548.967L199.933 548.947L483.037 499.028L483.152 499.008L483.132 498.893L451.852 321.493L451.831 321.378L451.716 321.398L168.612 371.317L168.497 371.337L168.517 371.452L199.798 548.852ZM491.966 505.549C492.761 510.054 489.752 514.35 485.247 515.145L203.675 564.794C199.169 565.588 194.873 562.58 194.079 558.074L160.637 368.419C159.843 363.913 162.851 359.617 167.357 358.823L448.929 309.174C453.434 308.38 457.731 311.388 458.525 315.893L491.966 505.549Z" fill="#F2F2F2" stroke="#E0E0E0" stroke-width="0.233338"/>
<path d="M160.408 368.459C159.592 363.834 162.691 359.409 167.316 358.593L448.889 308.944C453.514 308.129 457.939 311.228 458.755 315.853L492.196 505.508C493.012 510.133 489.913 514.559 485.288 515.375L203.715 565.023C199.09 565.839 194.664 562.74 193.849 558.115L160.408 368.459ZM203.891 566.019L485.463 516.37C490.636 515.458 494.104 510.507 493.192 505.333L459.751 315.677C458.838 310.503 453.886 307.036 448.713 307.948L167.141 357.597C161.967 358.51 158.5 363.461 159.412 368.635L192.853 558.29C193.766 563.464 198.717 566.931 203.891 566.019Z" fill="white" stroke="#E0E0E0" stroke-width="0.233338"/>
<path d="M529.984 509.07L159.865 574.332L158.731 567.901L528.85 502.639L529.984 509.07Z" fill="url(#paint0_linear_0_1)"/>
<g filter="url(#filter1_i_0_1)">
<path d="M509.95 516.821C509.045 517.171 508.109 517.432 507.154 517.6L183.578 574.656C182.592 574.829 181.592 574.904 180.592 574.877L159.865 574.332L529.984 509.07L509.95 516.821Z" fill="#E0E0E0"/>
</g>
<g filter="url(#filter2_ii_0_1)">
<path d="M319.505 544.488L369.878 535.606C372.683 535.111 374.556 532.436 374.061 529.63L313.53 540.304C314.025 543.109 316.7 544.983 319.505 544.488Z" fill="url(#paint1_linear_0_1)"/>
</g>
<g filter="url(#filter3_b_0_1)">
<rect x="168.632" y="371.432" width="287.472" height="180.137" transform="rotate(-10 168.632 371.432)" fill="#403020"/>
</g>
</g>
<g filter="url(#filter4_d_0_1)">
<path d="M147.424 263.785L147.492 263.81L147.517 263.742L224.996 50.8715L225.02 50.8036L224.952 50.7788L120.007 12.5817L119.939 12.557L119.914 12.6249L42.4354 225.495L42.4107 225.563L42.4787 225.588L147.424 263.785ZM231.712 46.8705C234.363 47.8354 235.541 51.3658 234.298 54.7793L157.239 266.498C155.997 269.912 152.825 271.859 150.174 270.894L37.9782 230.058C35.3271 229.093 34.1489 225.563 35.3915 222.149L112.451 10.4304C113.693 7.01688 116.865 5.06969 119.516 6.03459L231.712 46.8705Z" fill="#F2F2F2" stroke="#E0E0E0" stroke-width="0.144664"/>
<path d="M37.9295 230.194C35.1792 229.193 34.0003 225.551 35.2565 222.1L112.316 10.3809C113.572 6.92913 116.816 4.89763 119.566 5.89866L231.762 46.7346C234.512 47.7356 235.692 51.377 234.435 54.8288L157.376 266.547C156.12 269.999 152.876 272.031 150.125 271.03L37.9295 230.194ZM157.965 266.762L235.024 55.0432C236.449 51.1274 235.095 47.0579 232.048 45.949L119.852 5.11307C116.806 4.0043 113.152 6.25077 111.727 10.1665L34.6674 221.885C33.2419 225.802 34.5973 229.87 37.6436 230.979L149.839 271.815C152.886 272.924 156.54 270.678 157.965 266.762Z" fill="white" stroke="#E0E0E0" stroke-width="0.144664"/>
<g filter="url(#filter5_b_0_1)">
<rect x="39.7659" y="228" width="229.936" height="119.482" transform="rotate(-70 39.7659 228)" fill="#F2F2F2"/>
</g>
<g filter="url(#filter6_b_0_1)">
<rect x="48.0752" y="217.379" width="209.129" height="110.303" transform="rotate(-70 48.0752 217.379)" fill="#403020"/>
</g>
</g>
<g filter="url(#filter7_d_0_1)">
<path d="M90.1923 611.028L37.0278 664.192C32.132 669.088 32.132 677.024 37.0278 681.913L161.081 805.972C165.976 810.868 173.912 810.868 178.808 805.972L231.972 752.808C236.868 747.912 236.868 739.973 231.972 735.087L107.913 611.028C103.02 606.132 95.0881 606.132 90.1923 611.028Z" fill="#666666"/>
<path d="M52.6637 617.528L43.521 626.67C38.4705 631.721 38.4705 639.912 43.521 644.959L52.6637 654.101C57.7141 659.152 65.8984 659.152 70.9489 654.101L80.0983 644.959C85.1488 639.908 85.1488 631.717 80.0983 626.67L70.9489 617.528C65.8951 612.477 57.7108 612.477 52.6637 617.528Z" fill="#CCCCCC"/>
<path d="M90.1923 611.028L37.0278 664.192C32.132 669.088 32.132 677.024 37.0278 681.913L66.2748 711.16L137.16 640.275L107.913 611.028C103.02 606.132 95.0881 606.132 90.1923 611.028ZM145.505 702.273C144.641 702.636 144.08 703.463 144.08 704.378L146.45 722.179L118.538 715.931C117.482 715.696 116.39 716.183 115.895 717.115C115.401 718.046 115.623 719.196 116.44 719.892L159.107 752.071C159.803 752.67 160.798 752.811 161.642 752.441C162.493 752.071 163.044 751.251 163.044 750.35L160.674 732.777L188.421 738.752C189.47 739.068 190.613 738.635 191.168 737.717C191.383 737.354 191.488 736.957 191.488 736.563C191.488 735.945 191.229 735.336 190.741 734.886L148.074 702.706C147.382 702.074 146.376 701.909 145.505 702.273Z" fill="#FFA769"/>
</g>
<defs>
<filter id="filter0_d_0_1" x="148.497" y="301.546" width="391.72" height="287.663" filterUnits="userSpaceOnUse" color-interpolation-filters="sRGB">
<feFlood flood-opacity="0" result="BackgroundImageFix"/>
<feColorMatrix in="SourceAlpha" type="matrix" values="0 0 0 0 0 0 0 0 0 0 0 0 0 0 0 0 0 0 127 0" result="hardAlpha"/>
<feOffset dy="4.09335"/>
<feGaussianBlur stdDeviation="5.11669"/>
<feComposite in2="hardAlpha" operator="out"/>
<feColorMatrix type="matrix" values="0 0 0 0 0 0 0 0 0 0 0 0 0 0 0 0 0 0 0.25 0"/>
<feBlend mode="normal" in2="BackgroundImageFix" result="effect1_dropShadow_0_1"/>
<feBlend mode="normal" in="SourceGraphic" in2="effect1_dropShadow_0_1" result="shape"/>
</filter>
<filter id="filter1_i_0_1" x="159.865" y="508.136" width="370.119" height="66.746" filterUnits="userSpaceOnUse" color-interpolation-filters="sRGB">
<feFlood flood-opacity="0" result="BackgroundImageFix"/>
<feBlend mode="normal" in="SourceGraphic" in2="BackgroundImageFix" result="shape"/>
<feColorMatrix in="SourceAlpha" type="matrix" values="0 0 0 0 0 0 0 0 0 0 0 0 0 0 0 0 0 0 127 0" result="hardAlpha"/>
<feOffset dy="-0.93335"/>
<feGaussianBlur stdDeviation="0.93335"/>
<feComposite in2="hardAlpha" operator="arithmetic" k2="-1" k3="1"/>
<feColorMatrix type="matrix" values="0 0 0 0 0.768627 0 0 0 0 0.768627 0 0 0 0 0.768627 0 0 0 1 0"/>
<feBlend mode="normal" in2="shape" result="effect1_innerShadow_0_1"/>
</filter>
<filter id="filter2_ii_0_1" x="313.53" y="529.164" width="60.6108" height="15.8702" filterUnits="userSpaceOnUse" color-interpolation-filters="sRGB">
<feFlood flood-opacity="0" result="BackgroundImageFix"/>
<feBlend mode="normal" in="SourceGraphic" in2="BackgroundImageFix" result="shape"/>
<feColorMatrix in="SourceAlpha" type="matrix" values="0 0 0 0 0 0 0 0 0 0 0 0 0 0 0 0 0 0 127 0" result="hardAlpha"/>
<feOffset dy="0.466675"/>
<feGaussianBlur stdDeviation="0.233338"/>
<feComposite in2="hardAlpha" operator="arithmetic" k2="-1" k3="1"/>
<feColorMatrix type="matrix" values="0 0 0 0 0.95 0 0 0 0 0.95 0 0 0 0 0.95 0 0 0 1 0"/>
<feBlend mode="normal" in2="shape" result="effect1_innerShadow_0_1"/>
<feColorMatrix in="SourceAlpha" type="matrix" values="0 0 0 0 0 0 0 0 0 0 0 0 0 0 0 0 0 0 127 0" result="hardAlpha"/>
<feOffset dy="-0.466675"/>
<feGaussianBlur stdDeviation="0.93335"/>
<feComposite in2="hardAlpha" operator="arithmetic" k2="-1" k3="1"/>
<feColorMatrix type="matrix" values="0 0 0 0 0.88 0 0 0 0 0.88 0 0 0 0 0.88 0 0 0 1 0"/>
<feBlend mode="normal" in2="effect1_innerShadow_0_1" result="effect2_innerShadow_0_1"/>
</filter>
<filter id="filter3_b_0_1" x="163.032" y="315.913" width="325.585" height="238.519" filterUnits="userSpaceOnUse" color-interpolation-filters="sRGB">
<feFlood flood-opacity="0" result="BackgroundImageFix"/>
<feGaussianBlur in="BackgroundImageFix" stdDeviation="2.80005"/>
<feComposite in2="SourceAlpha" operator="in" result="effect1_backgroundBlur_0_1"/>
<feBlend mode="normal" in="SourceGraphic" in2="effect1_backgroundBlur_0_1" result="shape"/>
</filter>
<filter id="filter4_d_0_1" x="27.6831" y="0.950635" width="214.325" height="280.103" filterUnits="userSpaceOnUse" color-interpolation-filters="sRGB">
<feFlood flood-opacity="0" result="BackgroundImageFix"/>
<feColorMatrix in="SourceAlpha" type="matrix" values="0 0 0 0 0 0 0 0 0 0 0 0 0 0 0 0 0 0 127 0" result="hardAlpha"/>
<feOffset dy="2.53779"/>
<feGaussianBlur stdDeviation="3.17224"/>
<feComposite in2="hardAlpha" operator="out"/>
<feColorMatrix type="matrix" values="0 0 0 0 0 0 0 0 0 0 0 0 0 0 0 0 0 0 0.25 0"/>
<feBlend mode="normal" in2="BackgroundImageFix" result="effect1_dropShadow_0_1"/>
<feBlend mode="normal" in="SourceGraphic" in2="effect1_dropShadow_0_1" result="shape"/>
</filter>
<filter id="filter5_b_0_1" x="36.2939" y="8.45881" width="197.863" height="263.878" filterUnits="userSpaceOnUse" color-interpolation-filters="sRGB">
<feFlood flood-opacity="0" result="BackgroundImageFix"/>
<feGaussianBlur in="BackgroundImageFix" stdDeviation="1.73597"/>
<feComposite in2="SourceAlpha" operator="in" result="effect1_backgroundBlur_0_1"/>
<feBlend mode="normal" in="SourceGraphic" in2="effect1_backgroundBlur_0_1" result="shape"/>
</filter>
<filter id="filter6_b_0_1" x="44.87" y="17.6563" width="181.587" height="240.653" filterUnits="userSpaceOnUse" color-interpolation-filters="sRGB">
<feFlood flood-opacity="0" result="BackgroundImageFix"/>
<feGaussianBlur in="BackgroundImageFix" stdDeviation="1.60261"/>
<feComposite in2="SourceAlpha" operator="in" result="effect1_backgroundBlur_0_1"/>
<feBlend mode="normal" in="SourceGraphic" in2="effect1_backgroundBlur_0_1" result="shape"/>
</filter>
<filter id="filter7_d_0_1" x="-24.2342" y="559.459" width="317.468" height="317.468" filterUnits="userSpaceOnUse" color-interpolation-filters="sRGB">
<feFlood flood-opacity="0" result="BackgroundImageFix"/>
<feColorMatrix in="SourceAlpha" type="matrix" values="0 0 0 0 0 0 0 0 0 0 0 0 0 0 0 0 0 0 127 0" result="hardAlpha"/>
<feOffset dy="9.69369"/>
<feGaussianBlur stdDeviation="12.1171"/>
<feComposite in2="hardAlpha" operator="out"/>
<feColorMatrix type="matrix" values="0 0 0 0 0 0 0 0 0 0 0 0 0 0 0 0 0 0 0.25 0"/>
<feBlend mode="normal" in2="BackgroundImageFix" result="effect1_dropShadow_0_1"/>
<feBlend mode="normal" in="SourceGraphic" in2="effect1_dropShadow_0_1" result="shape"/>
</filter>
<linearGradient id="paint0_linear_0_1" x1="159.298" y1="571.117" x2="529.417" y2="505.854" gradientUnits="userSpaceOnUse">
<stop stop-color="#E0E0E0"/>
<stop offset="0.0107527" stop-color="#F2F2F2"/>
<stop offset="0.268817" stop-color="white"/>
<stop offset="0.817204" stop-color="white"/>
<stop offset="0.989247" stop-color="#F2F2F2"/>
<stop offset="1" stop-color="#E0E0E0"/>
</linearGradient>
<linearGradient id="paint1_linear_0_1" x1="313.054" y1="545.948" x2="376.914" y2="534.688" gradientUnits="userSpaceOnUse">
<stop stop-color="#F2F2F2"/>
<stop offset="0.13176" stop-color="white"/>
<stop offset="0.868285" stop-color="white"/>
<stop offset="1" stop-color="#F2F2F2"/>
</linearGradient>
</defs>
</svg>
