<svg width="614" height="926" viewBox="0 0 614 926" fill="none" xmlns="http://www.w3.org/2000/svg">
<g filter="url(#filter0_d_159_17)">
<path d="M242.046 277.177L242.066 277.289L242.178 277.269L518.826 228.489L518.939 228.469L518.919 228.357L488.352 55.0027L488.332 54.8904L488.22 54.9102L211.572 103.691L211.459 103.711L211.479 103.823L242.046 277.177ZM527.552 234.861C528.328 239.264 525.388 243.462 520.986 244.238L245.835 292.755C241.432 293.531 237.234 290.592 236.458 286.189L203.779 100.859C203.003 96.4559 205.942 92.2577 210.345 91.4814L485.496 42.9649C489.898 42.1886 494.097 45.1282 494.873 49.5308L527.552 234.861Z" fill="#F2F2F2" stroke="#E0E0E0" stroke-width="0.228016"/>
<path d="M203.554 100.898C202.758 96.3787 205.786 92.0538 210.305 91.2569L485.456 42.7403C489.976 41.9433 494.301 44.9718 495.098 49.4913L527.776 234.821C528.573 239.341 525.546 243.666 521.025 244.463L245.875 292.979C241.355 293.776 237.03 290.748 236.233 286.228L203.554 100.898ZM246.046 293.952L521.197 245.436C526.252 244.545 529.641 239.706 528.749 234.65L496.071 49.3197C495.179 44.264 490.34 40.876 485.285 41.7673L210.134 90.2838C205.078 91.1753 201.69 96.0141 202.581 101.07L235.26 286.4C236.152 291.456 240.99 294.844 246.046 293.952Z" fill="white" stroke="#E0E0E0" stroke-width="0.228016"/>
<path d="M564.702 238.302L203.024 302.075L201.916 295.791L563.594 232.018L564.702 238.302Z" fill="url(#paint0_linear_159_17)"/>
<g filter="url(#filter1_i_159_17)">
<path d="M545.125 245.876C544.241 246.218 543.326 246.473 542.393 246.638L226.196 302.392C225.233 302.562 224.256 302.634 223.278 302.609L203.024 302.075L564.702 238.302L545.125 245.876Z" fill="#E0E0E0"/>
</g>
<g filter="url(#filter2_ii_159_17)">
<path d="M359.024 272.912L408.247 264.233C410.989 263.749 412.819 261.135 412.336 258.393L353.185 268.823C353.668 271.565 356.282 273.396 359.024 272.912Z" fill="url(#paint1_linear_159_17)"/>
</g>
<g filter="url(#filter3_b_159_17)">
<rect x="211.591" y="103.803" width="280.916" height="176.028" transform="rotate(-10 211.591 103.803)" fill="#403020"/>
</g>
</g>
<g filter="url(#filter4_d_159_17)">
<path d="M197.052 28.8015L197.066 28.7634L197.028 28.7496L138.272 7.36441L138.234 7.35056L138.22 7.38861L94.8429 126.567L94.829 126.605L94.8671 126.619L153.622 148.004L153.66 148.018L153.674 147.98L197.052 28.8015ZM200.812 26.5615C202.296 27.1017 202.956 29.0782 202.26 30.9893L159.117 149.523C158.422 151.434 156.646 152.524 155.162 151.984L92.3474 129.121C90.8632 128.581 90.2036 126.605 90.8993 124.694L134.042 6.15997C134.738 4.24887 136.513 3.15872 137.997 3.69893L200.812 26.5615Z" fill="#F2F2F2" stroke="#E0E0E0" stroke-width="0.0809924"/>
<path d="M92.3197 129.198C90.7799 128.637 90.1199 126.598 90.8232 124.666L133.966 6.13229C134.669 4.19975 136.485 3.06238 138.025 3.62283L200.84 26.4854C202.379 27.0458 203.04 29.0845 202.336 31.017L159.193 149.551C158.49 151.483 156.674 152.621 155.134 152.06L92.3197 129.198ZM159.523 149.671L202.666 31.1371C203.464 28.9448 202.705 26.6664 201 26.0456L138.185 3.18302C136.48 2.56226 134.434 3.81997 133.636 6.01225L90.4934 124.546C89.6953 126.739 90.4541 129.017 92.1596 129.637L154.974 152.5C156.68 153.121 158.725 151.863 159.523 149.671Z" fill="white" stroke="#E0E0E0" stroke-width="0.0809924"/>
<g filter="url(#filter5_b_159_17)">
<rect x="93.3482" y="127.969" width="128.733" height="66.8935" transform="rotate(-70 93.3482 127.969)" fill="#F2F2F2"/>
</g>
<g filter="url(#filter6_b_159_17)">
<rect x="98" y="122.023" width="117.084" height="61.7545" transform="rotate(-70 98 122.023)" fill="#403020"/>
</g>
</g>
<g filter="url(#filter7_d_159_17)">
<path d="M162.5 351.813L235.5 347.313L564.5 377.313L490 414.313L446 420.813H395L72.5 381.313L162.5 351.813Z" fill="url(#paint2_linear_159_17)"/>
<path d="M111.039 856.493L57.1751 384.938L393.134 420.328L407.818 905.392L111.039 856.493Z" fill="#7EB65E" stroke="#7EB65E" stroke-width="10"/>
<path d="M474.225 887.237L485.918 412.721L563.302 381.503L521.24 858.368L474.225 887.237Z" fill="#6A994E" stroke="#6A994E" stroke-width="10"/>
<path d="M396.5 434.813L444 435.813L482.5 430.813L472.5 894.313L459 904.313L438.5 910.813L415 911.813L410.5 910.813L396.5 434.813Z" fill="url(#paint3_linear_159_17)"/>
<path d="M568.784 378.923C566.801 377.842 564.613 377.187 562.362 377.002L226.44 349.313H183.534C182.562 349.313 181.592 349.4 180.636 349.574L155.177 354.206L100.326 368.973L100.289 368.983L44.6596 384.878C39.1213 386.46 38.9162 394.233 44.3631 396.106C44.781 396.249 45.2137 396.346 45.6532 396.392L392.177 433.313H445.064L487.788 427.351C489.05 427.175 490.287 426.851 491.472 426.385L580.476 391.405C582.513 390.604 583.2 388.063 581.844 386.345C581.571 386 581.231 385.713 580.845 385.502L583.239 381.113L580.845 385.502L568.784 378.923Z" stroke="#486B34" stroke-width="10"/>
<path d="M568.784 362.923C566.801 361.842 564.613 361.187 562.362 361.002L226.44 333.313H183.534C182.562 333.313 181.592 333.4 180.636 333.574L155.177 338.206L100.326 352.973L100.289 352.983L44.6596 368.878C39.1213 370.46 38.9162 378.233 44.3631 380.106C44.781 380.249 45.2137 380.346 45.6532 380.392L392.177 417.313H445.064L487.788 411.351C489.05 411.175 490.287 410.851 491.472 410.385L580.476 375.405C582.513 374.604 583.2 372.063 581.844 370.345C581.571 370 581.231 369.713 580.845 369.502L583.239 365.113L580.845 369.502L568.784 362.923Z" stroke="#486B34" stroke-width="10"/>
<path d="M568.784 373.923C566.801 372.842 564.613 372.187 562.362 372.002L226.44 344.313H183.534C182.562 344.313 181.592 344.4 180.636 344.574L155.177 349.206L100.326 363.973L100.289 363.983L44.6596 379.878C39.1213 381.46 38.9161 389.233 44.3631 391.106C44.7811 391.249 45.2137 391.346 45.6531 391.392L392.177 428.313H445.064L487.788 422.351C489.05 422.175 490.287 421.851 491.472 421.385L580.476 386.405C582.513 385.604 583.2 383.063 581.844 381.345C581.571 381 581.231 380.713 580.845 380.502L568.784 373.923Z" stroke="#486B34" stroke-width="10"/>
<path d="M568.784 366.923C566.801 365.842 564.613 365.187 562.362 365.002L226.44 337.313H183.534C182.562 337.313 181.592 337.4 180.636 337.574L155.177 342.206L100.326 356.973L100.289 356.983L44.6596 372.878C39.1213 374.46 38.9162 382.233 44.3631 384.106C44.781 384.249 45.2137 384.346 45.6532 384.392L392.177 421.313H445.064L487.788 415.351C489.05 415.175 490.287 414.851 491.472 414.385L580.476 379.405C582.513 378.604 583.2 376.063 581.844 374.345C581.571 374 581.231 373.713 580.845 373.502L583.239 369.113L580.845 373.502L568.784 366.923Z" stroke="#486B34" stroke-width="10"/>
<g clip-path="url(#clip0_159_17)">
<path d="M259.664 704.81L287.607 663.595L286.336 679.451L337.177 683.783C346.343 683.615 354.63 680.62 361.004 674.182C339.305 710.22 331.673 736.395 293.486 733.07L281.735 732.042L280.08 749.639L259.664 704.81ZM199.255 725.212C172.802 714.57 163.051 679.98 152.686 655.3C157.93 660.978 167.942 669.325 174.134 669.868C186.008 670.935 197.883 671.996 209.757 673.06L245.736 676.208L241.027 728.712L240.899 728.855L199.255 725.212ZM151.923 641.41L172.391 607.504L156.268 596.719L207.022 601.159L227.659 647.859L211.892 636.441C205.569 647.243 199.246 658.046 192.924 668.849C186.791 668.204 180.658 667.559 174.526 666.914C162.794 663.074 155.286 652.92 151.923 641.41ZM319.511 679.384L300.698 636.083L348.418 612.604L366.506 658.464C366.25 669.038 347.991 682.186 337.463 681.15L319.511 679.384ZM195.309 571.053L221.498 538.378C244.687 531.979 256.116 551.174 263.331 563.274L237.85 603.239L195.309 571.053ZM281.403 597.407C277.707 586.021 272.583 572.918 265.758 561.318C259.647 550.933 251.976 541.668 245.933 537.299L304.505 542.308C314.94 544.172 319.514 550.751 324.357 559.627L331.482 575.176L345.223 568.009L316.909 609.5L264.078 604.994L281.403 597.407Z" fill="white"/>
</g>
</g>
<g filter="url(#filter8_d_159_17)">
<path d="M122.217 188.279L100.279 210.217C98.2589 212.237 98.2589 215.512 100.279 217.529L151.468 268.721C153.488 270.741 156.763 270.741 158.783 268.721L180.721 246.783C182.741 244.763 182.741 241.487 180.721 239.471L129.529 188.279C127.51 186.259 124.237 186.259 122.217 188.279Z" fill="#666666"/>
<path d="M106.731 190.961L102.958 194.734C100.874 196.818 100.874 200.198 102.958 202.28L106.731 206.053C108.815 208.137 112.192 208.137 114.276 206.053L118.052 202.28C120.136 200.196 120.136 196.816 118.052 194.734L114.276 190.961C112.191 188.877 108.814 188.877 106.731 190.961Z" fill="#CCCCCC"/>
<path d="M122.217 188.279L100.279 210.217C98.2589 212.237 98.2589 215.512 100.279 217.529L112.348 229.598L141.598 200.348L129.529 188.279C127.51 186.259 124.237 186.259 122.217 188.279ZM145.041 225.93C144.685 226.08 144.453 226.422 144.453 226.799L145.431 234.144L133.914 231.566C133.478 231.469 133.027 231.67 132.823 232.055C132.619 232.439 132.711 232.914 133.048 233.201L150.654 246.479C150.941 246.726 151.352 246.784 151.7 246.632C152.051 246.479 152.278 246.141 152.278 245.769L151.3 238.518L162.75 240.983C163.183 241.114 163.655 240.935 163.884 240.556C163.972 240.406 164.015 240.242 164.015 240.08C164.015 239.825 163.908 239.574 163.707 239.388L146.101 226.109C145.816 225.848 145.401 225.78 145.041 225.93Z" fill="#FFA769"/>
</g>
<defs>
<filter id="filter0_d_159_17" x="191.916" y="35.5109" width="382.786" height="281.103" filterUnits="userSpaceOnUse" color-interpolation-filters="sRGB">
<feFlood flood-opacity="0" result="BackgroundImageFix"/>
<feColorMatrix in="SourceAlpha" type="matrix" values="0 0 0 0 0 0 0 0 0 0 0 0 0 0 0 0 0 0 127 0" result="hardAlpha"/>
<feOffset dy="4"/>
<feGaussianBlur stdDeviation="5"/>
<feComposite in2="hardAlpha" operator="out"/>
<feColorMatrix type="matrix" values="0 0 0 0 0 0 0 0 0 0 0 0 0 0 0 0 0 0 0.25 0"/>
<feBlend mode="normal" in2="BackgroundImageFix" result="effect1_dropShadow_159_17"/>
<feBlend mode="normal" in="SourceGraphic" in2="effect1_dropShadow_159_17" result="shape"/>
</filter>
<filter id="filter1_i_159_17" x="203.024" y="237.39" width="361.678" height="65.2238" filterUnits="userSpaceOnUse" color-interpolation-filters="sRGB">
<feFlood flood-opacity="0" result="BackgroundImageFix"/>
<feBlend mode="normal" in="SourceGraphic" in2="BackgroundImageFix" result="shape"/>
<feColorMatrix in="SourceAlpha" type="matrix" values="0 0 0 0 0 0 0 0 0 0 0 0 0 0 0 0 0 0 127 0" result="hardAlpha"/>
<feOffset dy="-0.912064"/>
<feGaussianBlur stdDeviation="0.912064"/>
<feComposite in2="hardAlpha" operator="arithmetic" k2="-1" k3="1"/>
<feColorMatrix type="matrix" values="0 0 0 0 0.768627 0 0 0 0 0.768627 0 0 0 0 0.768627 0 0 0 1 0"/>
<feBlend mode="normal" in2="shape" result="effect1_innerShadow_159_17"/>
</filter>
<filter id="filter2_ii_159_17" x="353.185" y="257.937" width="59.2286" height="15.5083" filterUnits="userSpaceOnUse" color-interpolation-filters="sRGB">
<feFlood flood-opacity="0" result="BackgroundImageFix"/>
<feBlend mode="normal" in="SourceGraphic" in2="BackgroundImageFix" result="shape"/>
<feColorMatrix in="SourceAlpha" type="matrix" values="0 0 0 0 0 0 0 0 0 0 0 0 0 0 0 0 0 0 127 0" result="hardAlpha"/>
<feOffset dy="0.456032"/>
<feGaussianBlur stdDeviation="0.228016"/>
<feComposite in2="hardAlpha" operator="arithmetic" k2="-1" k3="1"/>
<feColorMatrix type="matrix" values="0 0 0 0 0.95 0 0 0 0 0.95 0 0 0 0 0.95 0 0 0 1 0"/>
<feBlend mode="normal" in2="shape" result="effect1_innerShadow_159_17"/>
<feColorMatrix in="SourceAlpha" type="matrix" values="0 0 0 0 0 0 0 0 0 0 0 0 0 0 0 0 0 0 127 0" result="hardAlpha"/>
<feOffset dy="-0.456032"/>
<feGaussianBlur stdDeviation="0.912064"/>
<feComposite in2="hardAlpha" operator="arithmetic" k2="-1" k3="1"/>
<feColorMatrix type="matrix" values="0 0 0 0 0.88 0 0 0 0 0.88 0 0 0 0 0.88 0 0 0 1 0"/>
<feBlend mode="normal" in2="effect1_innerShadow_159_17" result="effect2_innerShadow_159_17"/>
</filter>
<filter id="filter3_b_159_17" x="206.119" y="49.5501" width="318.16" height="233.079" filterUnits="userSpaceOnUse" color-interpolation-filters="sRGB">
<feFlood flood-opacity="0" result="BackgroundImageFix"/>
<feGaussianBlur in="BackgroundImageFix" stdDeviation="2.73619"/>
<feComposite in2="SourceAlpha" operator="in" result="effect1_backgroundBlur_159_17"/>
<feBlend mode="normal" in="SourceGraphic" in2="effect1_backgroundBlur_159_17" result="shape"/>
</filter>
<filter id="filter4_d_159_17" x="86.5831" y="0.852628" width="119.993" height="156.819" filterUnits="userSpaceOnUse" color-interpolation-filters="sRGB">
<feFlood flood-opacity="0" result="BackgroundImageFix"/>
<feColorMatrix in="SourceAlpha" type="matrix" values="0 0 0 0 0 0 0 0 0 0 0 0 0 0 0 0 0 0 127 0" result="hardAlpha"/>
<feOffset dy="1.42082"/>
<feGaussianBlur stdDeviation="1.77602"/>
<feComposite in2="hardAlpha" operator="out"/>
<feColorMatrix type="matrix" values="0 0 0 0 0 0 0 0 0 0 0 0 0 0 0 0 0 0 0.25 0"/>
<feBlend mode="normal" in2="BackgroundImageFix" result="effect1_dropShadow_159_17"/>
<feBlend mode="normal" in="SourceGraphic" in2="effect1_dropShadow_159_17" result="shape"/>
</filter>
<filter id="filter5_b_159_17" x="91.4043" y="5.05615" width="110.776" height="147.736" filterUnits="userSpaceOnUse" color-interpolation-filters="sRGB">
<feFlood flood-opacity="0" result="BackgroundImageFix"/>
<feGaussianBlur in="BackgroundImageFix" stdDeviation="0.971908"/>
<feComposite in2="SourceAlpha" operator="in" result="effect1_backgroundBlur_159_17"/>
<feBlend mode="normal" in="SourceGraphic" in2="effect1_backgroundBlur_159_17" result="shape"/>
</filter>
<filter id="filter6_b_159_17" x="96.2055" y="10.2055" width="101.664" height="134.733" filterUnits="userSpaceOnUse" color-interpolation-filters="sRGB">
<feFlood flood-opacity="0" result="BackgroundImageFix"/>
<feGaussianBlur in="BackgroundImageFix" stdDeviation="0.897243"/>
<feComposite in2="SourceAlpha" operator="in" result="effect1_backgroundBlur_159_17"/>
<feBlend mode="normal" in="SourceGraphic" in2="effect1_backgroundBlur_159_17" result="shape"/>
</filter>
<filter id="filter7_d_159_17" x="0" y="321.313" width="624" height="605" filterUnits="userSpaceOnUse" color-interpolation-filters="sRGB">
<feFlood flood-opacity="0" result="BackgroundImageFix"/>
<feColorMatrix in="SourceAlpha" type="matrix" values="0 0 0 0 0 0 0 0 0 0 0 0 0 0 0 0 0 0 127 0" result="hardAlpha"/>
<feOffset dy="4"/>
<feGaussianBlur stdDeviation="5"/>
<feComposite in2="hardAlpha" operator="out"/>
<feColorMatrix type="matrix" values="0 0 0 0 0 0 0 0 0 0 0 0 0 0 0 0 0 0 0.25 0"/>
<feBlend mode="normal" in2="BackgroundImageFix" result="effect1_dropShadow_159_17"/>
<feBlend mode="normal" in="SourceGraphic" in2="effect1_dropShadow_159_17" result="shape"/>
</filter>
<filter id="filter8_d_159_17" x="75" y="167" width="131" height="131" filterUnits="userSpaceOnUse" color-interpolation-filters="sRGB">
<feFlood flood-opacity="0" result="BackgroundImageFix"/>
<feColorMatrix in="SourceAlpha" type="matrix" values="0 0 0 0 0 0 0 0 0 0 0 0 0 0 0 0 0 0 127 0" result="hardAlpha"/>
<feOffset dy="4"/>
<feGaussianBlur stdDeviation="5"/>
<feComposite in2="hardAlpha" operator="out"/>
<feColorMatrix type="matrix" values="0 0 0 0 0 0 0 0 0 0 0 0 0 0 0 0 0 0 0.25 0"/>
<feBlend mode="normal" in2="BackgroundImageFix" result="effect1_dropShadow_159_17"/>
<feBlend mode="normal" in="SourceGraphic" in2="effect1_dropShadow_159_17" result="shape"/>
</filter>
<linearGradient id="paint0_linear_159_17" x1="202.47" y1="298.934" x2="564.149" y2="235.16" gradientUnits="userSpaceOnUse">
<stop stop-color="#E0E0E0"/>
<stop offset="0.0107527" stop-color="#F2F2F2"/>
<stop offset="0.268817" stop-color="white"/>
<stop offset="0.817204" stop-color="white"/>
<stop offset="0.989247" stop-color="#F2F2F2"/>
<stop offset="1" stop-color="#E0E0E0"/>
</linearGradient>
<linearGradient id="paint1_linear_159_17" x1="352.72" y1="274.339" x2="415.123" y2="263.335" gradientUnits="userSpaceOnUse">
<stop stop-color="#F2F2F2"/>
<stop offset="0.13176" stop-color="white"/>
<stop offset="0.868285" stop-color="white"/>
<stop offset="1" stop-color="#F2F2F2"/>
</linearGradient>
<linearGradient id="paint2_linear_159_17" x1="349" y1="347.313" x2="358.5" y2="859.813" gradientUnits="userSpaceOnUse">
<stop stop-color="#6A994E"/>
<stop offset="1" stop-color="#23331A"/>
</linearGradient>
<linearGradient id="paint3_linear_159_17" x1="422" y1="671.313" x2="467.5" y2="671.313" gradientUnits="userSpaceOnUse">
<stop stop-color="#7EB65E"/>
<stop offset="1" stop-color="#6A994E"/>
</linearGradient>
<clipPath id="clip0_159_17">
<rect width="215.272" height="208.671" fill="white" transform="translate(171.253 513.707) rotate(10)"/>
</clipPath>
</defs>
</svg>
